<svg xmlns="http://www.w3.org/2000/svg" width="32" height="32" viewBox="0 0 32 32">
  <defs>
    <linearGradient id="g" x1="0" y1="0" x2="1" y2="1">
      <stop offset="0" stop-color="#167C80"/>
      <stop offset="1" stop-color="#55C7C5"/>
    </linearGradient>
  </defs>
  <rect width="32" height="32" rx="8" fill="#123D52"/>
  <path d="M16 6c-2.6 0-4.7 2.1-4.7 4.7 0 1.9 1.1 3.5 2.7 4.3-1.9.7-3.4 2.3-4 4.3-.3 1 .5 2 1.6 2 .8 0 1.5-.5 1.7-1.3.4-1.5 1.8-2.6 3.4-2.6h.6c1.6 0 3 1.1 3.4 2.6.2.8.9 1.3 1.7 1.3 1.1 0 1.9-1 1.6-2-.6-2-2.1-3.6-4-4.3 1.6-.8 2.7-2.4 2.7-4.3C20.7 8.1 18.6 6 16 6z" fill="url(#g)"/>
</svg>
